<svg width="65" height="65" viewBox="0 0 65 65" fill="none" xmlns="http://www.w3.org/2000/svg">
<path d="M32.5 65C50.4493 65 65 50.4493 65 32.5C65 14.5507 50.4493 0 32.5 0C14.5507 0 0 14.5507 0 32.5C0 50.4493 14.5507 65 32.5 65Z" fill="#4176FA"/>
<path d="M44.1514 26.8474C34.7643 26.8474 34.7521 36.1992 34.7521 36.2473C34.7521 36.2473 34.109 45.6106 44.1514 45.6106C44.1514 45.6106 52.5264 46.0869 52.5264 39.0942H48.2259C48.2259 39.0942 48.3684 41.7267 44.2945 41.7267C44.2945 41.7267 39.994 42.0129 39.994 37.4738H52.6694C52.6694 37.4738 54.0634 26.8474 44.1514 26.8474ZM39.9459 34.1976C39.9459 34.1976 40.4702 30.433 44.247 30.433C48.0353 30.433 47.9756 34.1976 47.9756 34.1976H39.9459ZM29.2014 31.7916C29.2014 31.7916 32.9301 31.5175 32.9301 27.1336C32.9301 22.7619 29.8804 20.6172 26.0087 20.6172H13.2729V45.0979H26.0075C26.0075 45.0979 33.7869 45.3366 33.7869 37.8671C33.7869 37.8671 34.1212 31.7916 29.2014 31.7916ZM18.8845 24.9652H26.0081C26.0081 24.9652 27.7357 24.9652 27.7357 27.5143C27.7357 30.0634 26.723 30.433 25.5672 30.433H18.8845V24.9652ZM25.6512 40.7499H18.8845V34.1976H26.0081C26.0081 34.1976 28.5937 34.1738 28.5815 37.5688C28.5815 40.4284 26.6639 40.7262 25.6512 40.7499ZM38.8857 22.0586V25.0729H48.9883V22.0586H38.8857Z" fill="#F1F2F2"/>
</svg>
