<svg width="65" height="65" viewBox="0 0 65 65" fill="none" xmlns="http://www.w3.org/2000/svg">
<path d="M32.5 65C50.4493 65 65 50.4493 65 32.5C65 14.5507 50.4493 0 32.5 0C14.5507 0 0 14.5507 0 32.5C0 50.4493 14.5507 65 32.5 65Z" fill="#FA597D"/>
<path d="M35.1055 61.2976C17.1563 61.2976 2.60546 46.7467 2.60546 28.7976C2.60546 22.658 4.30866 16.9165 7.26718 12.0186C2.72441 17.6084 0 24.7357 0 32.5002C0 50.4493 14.5509 65.0001 32.5 65.0001C44.3097 65.0001 54.6475 58.7006 60.3383 49.2792C54.3794 56.6115 45.2903 61.2976 35.1055 61.2976Z" fill="#E0365C"/>
<path d="M50.0528 30.8548C47.1989 30.8548 44.3782 31.0736 41.602 31.5066C41.0257 28.945 40.2611 26.4271 39.311 23.962C41.1505 22.5416 42.9067 21.0006 44.5696 19.3375C48.0744 15.8327 51.0475 11.9208 53.4561 7.66089C52.0479 6.47146 50.5372 5.39973 48.9388 4.46065C45.9003 9.96306 41.8314 14.8202 36.9931 18.7694C34.4141 13.7192 31.0692 9.1244 27.0168 5.07193C25.7258 3.78095 24.3788 2.56334 22.9805 1.41797C20.9349 2.04372 18.9752 2.86549 17.1232 3.86207C23.6198 8.55083 28.9228 14.7954 32.4789 22.0463C24.882 26.9258 15.851 29.7577 6.17094 29.7577C4.13232 29.7577 2.12304 29.6308 0.149297 29.3869C0.0517969 30.4119 0 31.45 0 32.5004C0 33.3102 0.0307226 34.113 0.0888672 34.9081C2.0965 35.1309 4.12521 35.2431 6.17094 35.2431C13.5007 35.2431 20.6126 33.8069 27.3093 30.9744C29.861 29.8952 32.3082 28.6292 34.6446 27.1892C35.2724 28.9584 35.8004 30.7745 36.2229 32.6302C33.7399 33.2831 31.3007 34.1141 28.9143 35.1235C22.4475 37.8587 16.6405 41.7738 11.654 46.7602C9.88977 48.5244 8.26236 50.3936 6.77104 52.3563C7.91705 53.8389 9.18747 55.2203 10.5681 56.4838C17.0031 47.6477 26.326 41.0431 37.1392 38.074C37.3354 39.8465 37.4367 41.6471 37.4367 43.4709C37.4367 51.193 35.6342 58.5021 32.4283 64.9995C32.4523 64.9995 32.476 65.0005 32.5 65.0005C34.6348 65.0005 36.7208 64.7923 38.7405 64.3995C41.5147 57.7642 42.9218 50.7243 42.9218 43.4711C42.9218 41.2656 42.7908 39.0799 42.5318 36.9191C44.9838 36.5384 47.4956 36.3404 50.0527 36.3404C55.0597 36.3404 59.8929 37.0985 64.4441 38.5054C64.782 36.6971 64.9694 34.8361 64.9944 32.9356C60.1642 31.5533 55.1615 30.8548 50.0528 30.8548Z" fill="#C73052"/>
</svg>
