<svg width="65" height="65" viewBox="0 0 65 65" fill="none" xmlns="http://www.w3.org/2000/svg">
<path d="M65 32.5C65 48.7221 53.1146 62.1677 37.5781 64.6052V41.8945H45.1509L46.5918 32.5H37.5781V26.4037C37.5781 23.8329 38.8375 21.3281 42.8746 21.3281H46.9727V13.3301C46.9727 13.3301 43.2529 12.6953 39.697 12.6953C32.274 12.6953 27.4219 17.1945 27.4219 25.3398V32.5H19.1699V41.8945H27.4219V64.6052C11.8854 62.1677 0 48.7221 0 32.5C0 14.5514 14.5514 0 32.5 0C50.4486 0 65 14.5514 65 32.5Z" fill="#1877F2"/>
<path d="M45.1509 41.8945L46.5918 32.5H37.5781V26.4036C37.5781 23.8334 38.8372 21.3281 42.8745 21.3281H46.9727V13.3301C46.9727 13.3301 43.2534 12.6953 39.6976 12.6953C32.2739 12.6953 27.4219 17.1945 27.4219 25.3398V32.5H19.1699V41.8945H27.4219V64.605C29.0766 64.8647 30.7724 65 32.5 65C34.2276 65 35.9234 64.8647 37.5781 64.605V41.8945H45.1509Z" fill="white"/>
</svg>
