<svg width="1440" height="305" viewBox="0 0 1440 305" fill="none" xmlns="http://www.w3.org/2000/svg">
<mask id="mask0_1027_2053" style="mask-type:alpha" maskUnits="userSpaceOnUse" x="-1" y="0" width="1444" height="305">
<path fill-rule="evenodd" clip-rule="evenodd" d="M773.565 0.300319C753.691 1.98211 735.155 7.27192 717.166 16.3945C702.775 23.6933 691.059 32.3557 678.804 44.7579C665.718 58.0022 657.821 69.1495 649.854 85.6239C629.461 127.789 629.347 176.206 649.541 218.545C656.784 233.731 665.412 246.246 676.87 258.186C711.764 294.549 761.39 311.108 810.275 302.7C869.524 292.51 917.441 247.593 931.625 188.944C934.743 176.051 935.768 167.111 935.788 152.648C935.812 134.382 933.692 120.644 928.355 104.492C920.737 81.4329 909.188 62.4421 892.273 45.1612C868.605 20.9808 837.927 5.59298 804.576 1.17166C796.4 0.0880154 781.142 -0.340632 773.565 0.300319ZM-0.683594 17.4736V34.652H44.4315H89.5466V169.826V305H107.927H126.307V169.826V34.652H171.701H217.094V17.4736V0.295265H108.205H-0.683594V17.4736ZM272.235 152.648V305H290.894H309.552V169.792V34.5839L348.959 34.8086C386.389 35.022 388.63 35.0924 393.656 36.2082C414.85 40.9156 427.315 49.8016 434.706 65.4734C438.513 73.5438 439.928 79.9505 440.289 90.7492C440.927 109.812 436.415 123.546 425.859 134.664C416.919 144.08 406.011 149.53 389.757 152.699C386.096 153.413 380.322 153.683 364.275 153.891C352.865 154.039 343.528 154.275 343.528 154.416C343.528 154.89 360.653 181.048 401.63 243.159L442.391 304.946L464.837 304.973L487.283 305L483.714 299.79C481.752 296.924 464.903 271.896 446.272 244.172C427.641 216.447 411.184 192.006 409.701 189.859C408.217 187.711 407.196 185.789 407.431 185.588C407.666 185.387 410.491 184.527 413.707 183.676C439.476 176.865 458.815 161.837 469.522 140.302C472.581 134.15 475.903 123.673 477.288 115.802C478.751 107.494 479.284 90.2829 478.358 81.3C473.953 38.6346 449.362 11.1762 408.137 2.89172C395.855 0.423672 392.023 0.295265 330.621 0.295265H272.235V152.648ZM542.369 152.648V305H561.027H579.686V152.648V0.295265H561.027H542.369V152.648ZM991.292 152.648V305H1009.67H1028.05L1028.19 184.611L1028.33 64.2213L1031.8 69.0087C1033.71 71.6418 1047.72 91.5377 1062.95 113.222C1092.44 155.226 1111.96 183.008 1134.97 215.729C1142.81 226.881 1160.12 251.525 1173.44 270.494L1197.65 304.983L1216.45 304.992L1235.25 305V301.034V297.067L1219.27 274.14C1195.26 239.674 1170.91 204.834 1117.65 128.711C1090.37 89.7309 1087.88 86.1691 1052.93 36.2009L1027.81 0.295265H1009.55H991.292V152.648ZM1198.49 91.1502V182.006L1208.31 196.051C1213.72 203.776 1221.92 215.519 1226.55 222.146L1234.97 234.195L1235.25 149.208L1235.53 64.2213L1243.1 74.9226C1247.26 80.8083 1262.41 102.352 1276.76 122.797C1291.11 143.242 1309.62 169.601 1317.9 181.372C1326.17 193.144 1338.1 210.125 1344.4 219.108C1350.71 228.092 1366.87 251.093 1380.31 270.221L1404.74 305H1423.59H1442.44V300.788V296.576L1435.58 286.848C1414.11 256.42 1388.54 219.974 1352.49 168.418C1333.86 141.762 1316.12 116.411 1299.49 92.6642C1274.25 56.615 1237.96 4.71433 1236.48 2.54648L1234.97 0.338064L1216.73 0.316682L1198.49 0.295265V91.1502ZM1405.13 90.8517V181.408L1411.43 190.402C1414.89 195.348 1423.18 207.189 1429.85 216.714C1436.51 226.24 1442.07 234.034 1442.2 234.034C1442.34 234.034 1442.44 181.443 1442.44 117.164V0.295265H1423.78H1405.13V90.8517ZM795.873 38.6148C815.046 40.5546 831.915 46.5569 847.592 57.0171C881.681 79.7624 901.035 119.173 898.214 160.103C895.385 201.156 871.453 237.187 835.052 255.198C819.129 263.076 803.483 266.701 785.393 266.701C763.925 266.701 744.056 261.046 725.78 249.734C690.532 227.918 669.354 186.049 672.586 144.564C674.319 122.315 680.945 103.817 693.854 85.1964C698.6 78.351 712.019 64.7986 718.93 59.8721C742.067 43.3803 769.115 35.9074 795.873 38.6148Z" fill="url(#paint0_linear_1027_2053)"/>
</mask>
<g mask="url(#mask0_1027_2053)">
<rect x="1440" y="299" width="1440" height="2" transform="rotate(180 1440 299)" fill="#91ABAB"/>
<rect x="1440" y="285" width="1440" height="2" transform="rotate(180 1440 285)" fill="#91ABAB"/>
<rect x="1440" y="159" width="1440" height="2" transform="rotate(180 1440 159)" fill="#91ABAB"/>
<rect x="1440" y="173" width="1440" height="2" transform="rotate(180 1440 173)" fill="#91ABAB"/>
<rect x="1440" y="187" width="1440" height="2" transform="rotate(180 1440 187)" fill="#91ABAB"/>
<rect x="1440" y="201" width="1440" height="2" transform="rotate(180 1440 201)" fill="#91ABAB"/>
<rect x="1440" y="215" width="1440" height="2" transform="rotate(180 1440 215)" fill="#91ABAB"/>
<rect x="1440" y="229" width="1440" height="2" transform="rotate(180 1440 229)" fill="#91ABAB"/>
<rect x="1440" y="243" width="1440" height="2" transform="rotate(180 1440 243)" fill="#91ABAB"/>
<rect x="1440" y="145" width="1440" height="2" transform="rotate(180 1440 145)" fill="#91ABAB"/>
<rect x="1440" y="131" width="1440" height="2" transform="rotate(180 1440 131)" fill="#91ABAB"/>
<rect x="1440" y="117" width="1440" height="2" transform="rotate(180 1440 117)" fill="#91ABAB"/>
<rect x="1440" y="103" width="1440" height="2" transform="rotate(180 1440 103)" fill="#91ABAB"/>
<rect x="1440" y="88.9995" width="1440" height="2" transform="rotate(180 1440 88.9995)" fill="#91ABAB"/>
<rect x="1440" y="74.9995" width="1440" height="2" transform="rotate(180 1440 74.9995)" fill="#91ABAB"/>
<rect x="1440" y="60.9995" width="1440" height="2" transform="rotate(180 1440 60.9995)" fill="#91ABAB"/>
<rect x="1440" y="46.9995" width="1440" height="2" transform="rotate(180 1440 46.9995)" fill="#91ABAB"/>
<rect x="1440" y="32.9995" width="1440" height="2" transform="rotate(180 1440 32.9995)" fill="#91ABAB"/>
<rect x="1440" y="18.9995" width="1440" height="2" transform="rotate(180 1440 18.9995)" fill="#91ABAB"/>
<rect x="1440" y="4.99951" width="1440" height="2" transform="rotate(180 1440 4.99951)" fill="#91ABAB"/>
<rect x="1440" y="257" width="1440" height="2" transform="rotate(180 1440 257)" fill="#91ABAB"/>
<rect x="1440" y="271" width="1440" height="2" transform="rotate(180 1440 271)" fill="#91ABAB"/>
</g>
<defs>
<linearGradient id="paint0_linear_1027_2053" x1="720.88" y1="0" x2="720.88" y2="305" gradientUnits="userSpaceOnUse">
<stop offset="0.536458" stop-color="#91ABAB"/>
<stop offset="1" stop-color="#91ABAB" stop-opacity="0"/>
</linearGradient>
</defs>
</svg>
