<svg width="65" height="65" viewBox="0 0 65 65" fill="none" xmlns="http://www.w3.org/2000/svg">
<path d="M65.0001 32.6925C65.0001 14.8494 50.5341 0.384766 32.6893 0.384766C14.8445 0.384766 0.378418 14.8494 0.378418 32.6925C0.378418 50.5356 14.8445 65.0003 32.6893 65.0003C50.5341 65.0003 65.0001 50.5356 65.0001 32.6925Z" fill="url(#paint0_linear_1028_1360)"/>
<path opacity="0.1" d="M57.0073 11.4372C52.2967 20.0837 45.6347 29.0024 37.3104 37.3259C28.9861 45.6494 20.0666 52.298 11.432 57.0081C10.8906 56.5376 10.3649 56.0474 9.85472 55.5372C6.77097 52.5567 4.31153 48.9922 2.61979 45.0514C0.928053 41.1106 0.037882 36.8725 0.00118299 32.5842C-0.035516 28.2959 0.781991 24.0431 2.40604 20.074C4.03008 16.1049 6.42816 12.4987 9.46044 9.46591C12.4927 6.43307 16.0985 4.03421 20.0676 2.40922C24.0367 0.784224 28.2896 -0.0343914 32.5783 0.00110695C36.8671 0.0366053 41.1058 0.925507 45.0475 2.61598C48.9891 4.30645 52.5547 6.76467 55.5363 9.84728C56.0465 10.3574 56.5368 10.8874 57.0073 11.4372Z" fill="white"/>
<path d="M40.3419 15.6885H25.0367C22.5561 15.6885 20.1771 16.6738 18.4231 18.4277C16.669 20.1816 15.6836 22.5603 15.6836 25.0407V40.3444C15.6836 42.8248 16.669 45.2035 18.4231 46.9574C20.1771 48.7113 22.5561 49.6966 25.0367 49.6966H40.3419C42.8225 49.6966 45.2015 48.7113 46.9556 46.9574C48.7096 45.2035 49.695 42.8248 49.695 40.3444V25.0407C49.695 22.5603 48.7096 20.1816 46.9556 18.4277C45.2015 16.6738 42.8225 15.6885 40.3419 15.6885ZM46.719 39.0011C46.719 41.0485 45.9056 43.0121 44.4577 44.4598C43.0098 45.9076 41.0461 46.7209 38.9984 46.7209H26.3802C24.3326 46.7209 22.3688 45.9076 20.9209 44.4598C19.473 43.0121 18.6596 41.0485 18.6596 39.0011V26.384C18.6596 24.3366 19.473 22.373 20.9209 20.9253C22.3688 19.4775 24.3326 18.6642 26.3802 18.6642H38.9984C41.0461 18.6642 43.0098 19.4775 44.4577 20.9253C45.9056 22.373 46.719 24.3366 46.719 26.384V39.0011Z" fill="white"/>
<path d="M38.8919 26.5537L38.8111 26.4729L38.7431 26.4049C37.1356 24.8031 34.9584 23.9042 32.6891 23.9053C31.5431 23.9131 30.4098 24.1466 29.3541 24.5924C28.2983 25.0383 27.3408 25.6877 26.5362 26.5037C25.7315 27.3197 25.0956 28.2863 24.6647 29.3481C24.2337 30.4099 24.0162 31.5462 24.0246 32.6921C24.0229 35.0177 24.9397 37.2498 26.5755 38.9029C27.3768 39.7138 28.3316 40.357 29.3841 40.7949C30.4367 41.2328 31.566 41.4567 32.7061 41.4535C34.4162 41.4176 36.0788 40.885 37.4914 39.9205C38.9039 38.956 40.0052 37.6013 40.661 36.0217C41.3168 34.4421 41.4987 32.7058 41.1846 31.0246C40.8704 29.3434 40.0738 27.7899 38.8919 26.5537ZM32.6891 38.4565C31.5456 38.4725 30.4231 38.1481 29.4645 37.5245C28.5059 36.901 27.7545 36.0064 27.3057 34.9546C26.857 33.9028 26.7312 32.7413 26.9444 31.6179C27.1577 30.4944 27.7003 29.4598 28.5032 28.6455C29.3061 27.8313 30.3331 27.2742 31.4536 27.0451C32.574 26.8161 33.7372 26.9254 34.7954 27.3592C35.8535 27.7931 36.7587 28.5318 37.3958 29.4814C38.0329 30.431 38.3731 31.5486 38.3732 32.6921C38.3788 33.4439 38.2362 34.1894 37.9535 34.886C37.6709 35.5827 37.2537 36.2168 36.7258 36.7521C36.1979 37.2874 35.5697 37.7135 34.877 38.0059C34.1844 38.2984 33.4409 38.4515 32.6891 38.4565Z" fill="white"/>
<path d="M43.9258 23.5021C43.928 23.775 43.8764 24.0455 43.7739 24.2984C43.6715 24.5512 43.5202 24.7814 43.3286 24.9757C43.1371 25.17 42.9091 25.3246 42.6578 25.4306C42.4064 25.5367 42.1366 25.5922 41.8638 25.5938C41.5933 25.5937 41.3255 25.5399 41.0759 25.4356C40.8263 25.3312 40.5999 25.1784 40.4098 24.9859C40.1218 24.6937 39.9259 24.3233 39.8464 23.9208C39.7669 23.5183 39.8072 23.1013 39.9625 22.7215C40.1178 22.3417 40.3811 22.0158 40.7198 21.7843C41.0586 21.5527 41.4578 21.4257 41.8681 21.4189C42.3482 21.4189 42.8132 21.5874 43.1818 21.8951L43.2243 21.9376C43.2928 21.9934 43.3555 22.0561 43.4113 22.1247L43.4581 22.1757C43.7624 22.5506 43.9277 23.0193 43.9258 23.5021Z" fill="white"/>
<defs>
<linearGradient id="paint0_linear_1028_1360" x1="9.8421" y1="9.84753" x2="55.532" y2="55.5419" gradientUnits="userSpaceOnUse">
<stop stop-color="#FAE100"/>
<stop offset="0.15" stop-color="#FCB720"/>
<stop offset="0.3" stop-color="#FF7950"/>
<stop offset="0.5" stop-color="#FF1C74"/>
<stop offset="1" stop-color="#6C1CD1"/>
</linearGradient>
</defs>
</svg>
