<svg width="32" height="32" fill="none" xmlns="http://www.w3.org/2000/svg"><rect width="32" height="32" rx="16" fill="#D9D9D9" fill-opacity=".1"/><path d="M19.167 15.833a3.333 3.333 0 1 1-6.667 0 3.333 3.333 0 0 1 6.667 0ZM15.833 11.666a.507.507 0 0 0 .5-.5v-2a.5.5 0 1 0-1 0v2a.507.507 0 0 0 .5.5ZM15.833 20a.507.507 0 0 0-.5.5v2a.5.5 0 1 0 1 0v-2a.507.507 0 0 0-.5-.5ZM12.18 12.886a.5.5 0 0 0 .707-.706l-1.414-1.413a.5.5 0 1 0-.706.706l1.413 1.413ZM19.487 18.78a.5.5 0 0 0-.707.706l1.413 1.414c.094.094.221.147.354.147a.5.5 0 0 0 .353-.853l-1.413-1.414ZM11.667 15.833a.507.507 0 0 0-.5-.5h-2a.5.5 0 1 0 0 1h2a.507.507 0 0 0 .5-.5ZM22.5 15.333h-2a.5.5 0 1 0 0 1h2a.5.5 0 0 0 0-1ZM12.18 18.78l-1.413 1.413a.5.5 0 0 0 .706.707l1.414-1.413a.5.5 0 0 0-.707-.707ZM19.167 13.033c.132 0 .26-.052.353-.146l1.38-1.414a.5.5 0 1 0-.707-.707L18.78 12.18a.5.5 0 0 0 .387.853Z" fill="#E0EEEE"/></svg>