<svg width="65" height="65" viewBox="0 0 65 65" fill="none" xmlns="http://www.w3.org/2000/svg">
<path d="M32.5 64.999C50.4493 64.999 65 50.4483 65 32.499C65 14.5498 50.4493 -0.000976562 32.5 -0.000976562C14.5507 -0.000976562 0 14.5498 0 32.499C0 50.4483 14.5507 64.999 32.5 64.999Z" fill="#007AB9"/>
<path d="M51.9184 35.116V48.515H44.15V36.014C44.15 32.8751 43.0284 30.7315 40.2157 30.7315C38.0692 30.7315 36.7941 32.1747 36.2309 33.572C36.0264 34.0714 35.9737 34.7649 35.9737 35.4653V48.5145H28.2047C28.2047 48.5145 28.309 27.3418 28.2047 25.1501H35.9743V28.4611C35.9587 28.4871 35.9366 28.5126 35.9227 28.5375H35.9743V28.4611C37.0067 26.8725 38.8478 24.6015 42.9757 24.6015C48.0866 24.6015 51.9184 27.9408 51.9184 35.116ZM20.0777 13.8877C17.4202 13.8877 15.6816 15.6321 15.6816 17.924C15.6816 20.1672 17.3698 21.962 19.9757 21.962H20.0261C22.7357 21.962 24.4205 20.1672 24.4205 17.924C24.3689 15.6321 22.7357 13.8877 20.0777 13.8877ZM16.1434 48.515H23.9095V25.1501H16.1434V48.515Z" fill="white"/>
</svg>
